# AST/ASF file generated using VICON BodyLanguage
# -----------------------------------------------
:version 1.10
:name VICON
:units
  mass 1.0
  length 0.45
  angle deg
:documentation
   .ast/.asf automatically generated from VICON data using
   VICON BodyBuilder and BodyLanguage model FoxedUp or BRILLIANT.MOD
:root
   order TX TY TZ RX RY RZ
   axis XYZ
   position 0 0 0  
   orientation 0 0 0 
:bonedata
  begin
     id 1 
     name lhipjoint
     direction 0.606768 -0.715223 0.346827 
     length 2.41543 
     axis 0 0 0  XYZ
  end
  begin
     id 2 
     name lfemur
     direction 0.34202 -0.939693 0  
     length 7.2778  
     axis 0 0 20  XYZ
    dof rx ry rz
    limits (-160.0 20.0)
           (-70.0 70.0)
           (-60.0 70.0)
  end
  begin
     id 3 
     name ltibia
     direction 0.34202 -0.939693 0   
     length 7.61811   
     axis 0 0 20   XYZ
    dof rx
    limits (-10.0 170.0)
  end
  begin
     id 4 
     name lfoot
     direction 0.0823924 -0.226371 0.97055   
     length 2.33618   
     axis -90 7.62852e-016 20   XYZ
    dof rx rz
    limits (-45.0 90.0)
           (-70.0 20.0)
  end
  begin
     id 5 
     name ltoes
     direction 1.53554e-011 -4.21934e-011 1   
     length 1.17015   
     axis -90 7.62852e-016 20   XYZ
    dof rx
    limits (-90.0 20.0)
  end
  begin
     id 6 
     name rhipjoint
     direction -0.6077 -0.714582 0.346516   
     length 2.4176  
     axis 0 0 0  XYZ 
  end
  begin
     id 7 
     name rfemur
     direction -0.34202 -0.939693 0   
     length 7.28127   
     axis 0 0 -20   XYZ
    dof rx ry rz
    limits (-160.0 20.0)
           (-70.0 70.0)
           (-70.0 60.0)
  end
  begin
     id 8 
     name rtibia
     direction -0.34202 -0.939693 0   
     length 7.77648   
     axis 0 0 -20   XYZ
    dof rx
    limits (-10.0 170.0)
 end
 begin
     id 9 
     name rfoot
     direction -0.0809463 -0.222398 0.97159   
     length 2.37533  
     axis -90 -7.62852e-016 -20   XYZ
    dof rx rz
    limits (-45.0 90.0)
           (-20.0 70.0)
  end
  begin
     id 10 
     name rtoes
     direction -1.53568e-011 -4.21714e-011 1   
     length 1.18972   
     axis -90 -7.62852e-016 -20   XYZ
    dof rx
    limits (-90.0 20.0)
  end
  begin
     id 11 
     name lowerback
     direction 0.010968 0.991932 -0.126297   
     length 2.21698   
     axis 0 0 0   XYZ
    dof rx ry rz
    limits (-20.0 45.0)
           (-30.0 30.0)
           (-30.0 30.0)
  end
  begin
     id 12 
     name upperback
     direction 0.0167007 0.997503 -0.0686276   
     length 2.22371   
     axis 0 0 0   XYZ
    dof rx ry rz
    limits (-20.0 45.0)
           (-30.0 30.0)
           (-30.0 30.0)
  end
  begin
     id 13 
     name thorax
     direction 0.0111721 0.999885 -0.0102878   
     length 2.25242   
     axis 0 0 0   XYZ
    dof rx ry rz
    limits (-20.0 45.0)
           (-30.0 30.0)
           (-30.0 30.0)
  end
  begin
     id 14 
     name lowerneck
     direction -0.0120265 0.990428 0.137508   
     length 1.57674   
     axis 0 0 0   XYZ
    dof rx ry rz
    limits (-20.0 45.0)
           (-30.0 30.0)
           (-30.0 30.0)
  end
  begin
     id 15 
     name upperneck
     direction 0.0175669 0.998907 0.0433089   
     length 1.5618   
     axis 0 0 0   XYZ
    dof rx ry rz
    limits (-20.0 45.0)
           (-30.0 30.0)
           (-30.0 30.0)
  end
  begin
     id 16
     name head
     direction 0.00754609 0.99997 0.00185367  
     length 1.60579  
     axis 0 0 0   XYZ
    dof rx ry rz
    limits (-20.0 45.0)
           (-30.0 30.0)
           (-30.0 30.0)
  end
  begin
     id 17 
     name lclavicle
     direction 0.885866 0.429166 -0.176231  
     length 3.44967  
     axis 0 0 0   XYZ
    dof ry rz
    limits (-20.0 10.0)
           (0.0 20.0)
  end
  begin
     id 18 
     name lhumerus
     direction 1 -4.48973e-011 -1.90255e-027   
     length 5.20607   
     axis 180 -30 -90   XYZ
    dof rx ry rz
    limits (-60.0 90.0)
           (-90.0 90.0)
           (-90.0 90.0)
  end
  begin
     id 19
     name lradius
     direction 1 -4.48956e-011 9.87925e-027   
     length 3.39961   
     axis 180 -30 -90   XYZ
    dof rx
    limits (-10.0 170.0)
  end
  begin
     id 20
     name lwrist
     direction 1 -4.48985e-011 1.73247e-026   
     length 1.6998   
     axis -9.60847e-015 90 90   XYZ
    dof ry
    limits (-180.0 0.0)
 end
  begin
     id 21 
     name lhand
     direction 1 -4.48798e-011 3.46119e-026   
     length 0.519693   
     axis -2.21073e-014 90 90   XYZ
    dof rx rz
    limits (-90.0 90.0)
           (-45.0 45.0)
  end
  begin
     id 22 
     name lfingers
     direction 1 -4.48938e-011 6.92797e-026   
     length 0.41899   
     axis -4.42155e-014 90 90   XYZ
    dof rx
    limits (0.0 90.0)
  end
  begin
     id 23
     name lthumb
     direction 0.707107 -6.34952e-011 0.707107   
     length 0.601588   
     axis -90 45 6.0103e-014   XYZ
    dof rx rz
    limits (-45.0 45.0)
           (-45.0 45.0)
  end
  begin
     id 24 
     name rclavicle
     direction -0.866736 0.456792 -0.200276   
     length 3.45032  
     axis 0 0 0   XYZ 
    dof ry rz
    limits (-10.0 20.0)
           (-20.0 0.0)
  end
  begin
     id 25 
     name rhumerus
     direction -1 -4.4897e-011 8.65094e-028  
     length 5.32214   
     axis 180 30 90   XYZ
    dof rx ry rz
    limits (-90.0 60.0)
           (-90.0 90.0)
           (-90.0 90.0)
  end
  begin
     id 26 
     name rradius
     direction -1 -4.48987e-011 1.08427e-026   
     length 3.51208   
     axis 180 30 90   XYZ
    dof rx
    limits (-10.0 170.0)
  end
  begin
     id 27 
     name rwrist
     direction -1 -4.48961e-011 1.73222e-026   
     length 1.75604   
     axis -9.60847e-015 -90 -90   XYZ
    dof ry
    limits (-180.0 0.0)
  end
  begin
     id 28
     name rhand
     direction -1 -4.48895e-011 3.46314e-026   
     length 0.586681   
     axis -2.21073e-014 -90 -90   XYZ
    dof rx rz
    limits (-90.0 90.0)
           (-45.0 45.0)
  end
  begin
     id 29
     name rfingers
     direction -1 -4.48968e-011 6.92916e-026   
     length 0.472997   
     axis -4.42155e-014 -90 -90   XYZ
    dof rx
    limits (0.0 90.0)
  end
  begin
     id 30
     name rthumb
     direction -0.707107 -6.34848e-011 0.707107   
     length 0.679133   
     axis -90 -45 -6.0103e-014   XYZ
    dof rx rz
    limits (-45.0 45.0)
           (-45.0 45.0)
  end
:hierarchy
  begin
    root lhipjoint rhipjoint lowerback
    lhipjoint lfemur
    lfemur ltibia
    ltibia lfoot
    lfoot ltoes
    rhipjoint rfemur
    rfemur rtibia
    rtibia rfoot
    rfoot rtoes
    lowerback upperback
    upperback thorax
    thorax lowerneck lclavicle rclavicle
    lowerneck upperneck
    upperneck head
    lclavicle lhumerus
    lhumerus lradius
    lradius lwrist
    lwrist lhand lthumb
    lhand lfingers
    rclavicle rhumerus
    rhumerus rradius
    rradius rwrist
    rwrist rhand rthumb
    rhand rfingers
  end

#!OML:ASF H:\Dans Jumps\Project 1\Capture day 1\Session 1\subject.ASF
:FULLY-SPECIFIED
:DEGREES
18
root 0.53882 17.552 -14.1314 6.30111 -1.40885 -1.65122
lowerback -1.98827 -0.31317 0.0095642
upperback 3.15171 -0.479634 1.54529
thorax 4.37656 -0.26665 1.56176
lowerneck -13.7319 -0.581805 -2.91913
upperneck 27.1873 -0.898305 2.83685
head 11.0769 -0.365315 1.41028
rclavicle -4.02539e-015 -1.13307e-014
rhumerus -22.7133 -18.2921 -79.5586
rradius 22.3004
rwrist 35.9669
rhand -17.4272 -26.0419
rfingers 7.12502
rthumb 8.82308 -55.8374
lclavicle -4.02539e-015 -1.13307e-014
lhumerus -20.0139 5.21405 85.3928
lradius 17.1929
lwrist -1.99899
lhand -23.5881 -2.63262
lfingers 7.12502
lthumb 2.87513 27.3277
rfemur -13.0501 -2.00775 19.1242
rtibia 20.7487
rfoot -13.082 -2.87352
rtoes 6.64599
lfemur -12.5012 7.55642 -18.061
ltibia 19.5134
lfoot -11.2047 4.95223
ltoes 0.128063
19
root 0.537496 17.5516 -14.1294 6.29778 -1.41571 -1.65933
lowerback -1.99867 -0.312449 0.0183559
upperback 3.15045 -0.479292 1.54978
thorax 4.38112 -0.26628 1.56144
lowerneck -13.7288 -0.584333 -2.91419
upperneck 27.196 -0.90379 2.83776
head 11.0798 -0.367242 1.40912
rclavicle -8.44835e-016 -1.49089e-014
rhumerus -22.7048 -18.2946 -79.5575
rradius 22.3191
rwrist 35.9488
rhand -17.4163 -26.0287
rfingers 7.12502
rthumb 8.83364 -55.8238
lclavicle -8.44835e-016 -1.49089e-014
lhumerus -20.0309 5.26084 85.3805
lradius 17.1768
lwrist -2.05109
lhand -23.5584 -2.57075
lfingers 7.12502
lthumb 2.90381 27.3892
rfemur -13.0407 -2.00696 19.1375
rtibia 20.7494
rfoot -13.0914 -2.8689
rtoes 6.6455
lfemur -12.4953 7.54709 -18.0464
ltibia 19.5272
lfoot -11.2089 4.97466
ltoes 0.103185
20
root 0.536156 17.5512 -14.1276 6.29337 -1.42213 -1.66514
lowerback -2.00702 -0.31187 0.0248801
upperback 3.14882 -0.478999 1.55366
thorax 4.38415 -0.265993 1.56178
lowerneck -13.723 -0.5862 -2.91058
upperneck 27.2067 -0.907813 2.83769
head 11.0828 -0.368782 1.40805
rclavicle 5.06901e-015 -5.76476e-015
rhumerus -22.6994 -18.2935 -79.5569
rradius 22.3424
rwrist 35.9275
rhand -17.4004 -26.0221
rfingers 7.12502
rthumb 8.84899 -55.8165
lclavicle 5.06901e-015 -5.76476e-015
lhumerus -20.0481 5.31464 85.3655
lradius 17.1575
lwrist -2.11216
lhand -23.5436 -2.54462
lfingers 7.12502
lthumb 2.91812 27.4152
rfemur -13.0325 -2.00676 19.1483
rtibia 20.7542
rfoot -13.1022 -2.86416
rtoes 6.65648
lfemur -12.4868 7.53486 -18.0338
ltibia 19.5382
lfoot -11.2123 4.99723
ltoes 0.0831222
21
root 0.534876 17.5508 -14.1256 6.28695 -1.42771 -1.66628
lowerback -2.01794 -0.312193 0.02858
upperback 3.14997 -0.47979 1.55574
thorax 4.39156 -0.266331 1.56178
lowerneck -13.7118 -0.587667 -2.91558
upperneck 27.2144 -0.911407 2.84566
head 11.0836 -0.370063 1.4114
rclavicle -4.32357e-015 1.53064e-014
rhumerus -22.6895 -18.3 -79.5555
rradius 22.3583
rwrist 35.914
rhand -17.3906 -26.0126
rfingers 7.12502
rthumb 8.85844 -55.8067
lclavicle -4.32357e-015 1.53064e-014
lhumerus -20.0619 5.3717 85.3486
lradius 17.1351
lwrist -2.17346
lhand -23.5457 -2.55115
lfingers 7.12502
lthumb 2.91614 27.4087
rfemur -13.0241 -2.00888 19.1536
rtibia 20.7637
rfoot -13.1152 -2.8581
rtoes 6.66782
lfemur -12.474 7.51948 -18.0262
ltibia 19.5457
lfoot -11.2146 5.02154
ltoes 0.0606561
22
root 0.533613 17.5503 -14.1237 6.2796 -1.43314 -1.6611
lowerback -2.02899 -0.312651 0.0254855
upperback 3.15198 -0.48044 1.55655
thorax 4.4 -0.266808 1.56427
lowerneck -13.6981 -0.588756 -2.92289
upperneck 27.2215 -0.914144 2.85443
head 11.0837 -0.371106 1.41555
rclavicle -8.44835e-016 -7.95139e-016
rhumerus -22.6781 -18.3098 -79.5533
rradius 22.372
rwrist 35.9018
rhand -17.3849 -26.0032
rfingers 7.12502
rthumb 8.86393 -55.797
lclavicle -8.44835e-016 -7.95139e-016
lhumerus -20.0736 5.42996 85.3316
lradius 17.1108
lwrist -2.23509
lhand -23.5614 -2.58002
lfingers 7.12502
lthumb 2.90098 27.38
rfemur -13.0169 -2.0135 19.1517
rtibia 20.7775
rfoot -13.1287 -2.8502
rtoes 6.68044
lfemur -12.459 7.50736 -18.026
ltibia 19.5501
lfoot -11.2173 5.04266
ltoes 0.0271641
23
root 0.532344 17.5499 -14.1218 6.27056 -1.4388 -1.65526
lowerback -2.03872 -0.31287 0.0215678
upperback 3.15534 -0.48074 1.5573
thorax 4.40908 -0.267145 1.5672
lowerneck -13.682 -0.590498 -2.93244
upperneck 27.2257 -0.917217 2.86315
head 11.0823 -0.372546 1.41997
rclavicle 6.4605e-016 1.25234e-014
rhumerus -22.6659 -18.3244 -79.5507
rradius 22.3843
rwrist 35.8964
rhand -17.3769 -26.0064
rfingers 7.12502
rthumb 8.87168 -55.7999
lclavicle 6.4605e-016 1.25234e-014
lhumerus -20.0846 5.49049 85.3138
lradius 17.0868
lwrist -2.29305
lhand -23.5857 -2.6213
lfingers 7.12502
lthumb 2.87749 27.339
rfemur -13.0095 -2.01669 19.1491
rtibia 20.794
rfoot -13.1428 -2.84353
rtoes 6.68725
lfemur -12.4418 7.49964 -18.0265
ltibia 19.5531
lfoot -11.221 5.06024
ltoes -0.0151821
24
root 0.531061 17.5494 -14.1199 6.26079 -1.44485 -1.64911
lowerback -2.04869 -0.312079 0.0168268
upperback 3.15981 -0.47967 1.55792
thorax 4.41942 -0.266836 1.57055
lowerneck -13.6728 -0.591949 -2.93803
upperneck 27.2348 -0.919995 2.86906
head 11.0841 -0.373748 1.42281
rclavicle -5.2181e-015 1.21259e-014
rhumerus -22.6532 -18.3439 -79.5473
rradius 22.3949
rwrist 35.8945
rhand -17.364 -26.0211
rfingers 7.12502
rthumb 8.88414 -55.814
lclavicle -5.2181e-015 1.21259e-014
lhumerus -20.0938 5.54467 85.2977
lradius 17.0625
lwrist -2.34183
lhand -23.621 -2.68596
lfingers 7.12502
lthumb 2.84343 27.2748
rfemur -13.0016 -2.01931 19.1462
rtibia 20.8113
rfoot -13.1564 -2.83799
rtoes 6.68414
lfemur -12.4241 7.49561 -18.0274
ltibia 19.5569
lfoot -11.2277 5.07493
ltoes -0.0534056
25
root 0.529717 17.5489 -14.1182 6.25055 -1.44843 -1.64561
lowerback -2.05744 -0.311305 0.0141155
upperback 3.16455 -0.478731 1.55937
thorax 4.42935 -0.266539 1.5736
lowerneck -13.665 -0.593153 -2.94292
upperneck 27.2452 -0.922934 2.8762
head 11.0866 -0.374792 1.42597
rclavicle -2.6339e-015 5.76476e-015
rhumerus -22.6408 -18.3674 -79.5432
rradius 22.4012
rwrist 35.8962
rhand -17.3529 -26.0392
rfingers 7.12502
rthumb 8.89477 -55.8317
lclavicle -2.6339e-015 5.76476e-015
lhumerus -20.1027 5.59689 85.2818
lradius 17.0378
lwrist -2.38908
lhand -23.6433 -2.70836
lfingers 7.12502
lthumb 2.82184 27.2527
rfemur -12.9923 -2.01909 19.1466
rtibia 20.8276
rfoot -13.169 -2.83781
rtoes 6.67569
lfemur -12.4079 7.49559 -18.0249
ltibia 19.5629
lfoot -11.2359 5.0839
ltoes -0.0802957
26
root 0.528377 17.5484 -14.1164 6.23941 -1.45054 -1.64557
lowerback -2.06369 -0.310439 0.0148529
upperback 3.16844 -0.477834 1.5622
thorax 4.43695 -0.266162 1.57615
lowerneck -13.6626 -0.592368 -2.94576
upperneck 27.2629 -0.923628 2.88359
head 11.0929 -0.374554 1.42927
rclavicle 7.45443e-016 -1.2921e-014
rhumerus -22.6314 -18.3903 -79.5374
rradius 22.4048
rwrist 35.9005
rhand -17.3426 -26.0607
rfingers 7.12502
rthumb 8.90478 -55.8528
lclavicle 7.45443e-016 -1.2921e-014
lhumerus -20.1144 5.64709 85.2667
lradius 17.0144
lwrist -2.43421
lhand -23.6642 -2.7339
lfingers 7.12502
lthumb 2.80163 27.2274
rfemur -12.9808 -2.01975 19.151
rtibia 20.8421
rfoot -13.1816 -2.83695
rtoes 6.66605
lfemur -12.3924 7.49572 -18.0183
ltibia 19.5716
lfoot -11.2457 5.09112
ltoes -0.0988906
27
root 0.52701 17.5479 -14.1147 6.2279 -1.45178 -1.64541
lowerback -2.06905 -0.309832 0.0151509
upperback 3.17216 -0.477255 1.56507
thorax 4.44389 -0.265957 1.57898
lowerneck -13.6572 -0.591231 -2.95165
upperneck 27.2792 -0.924068 2.89441
head 11.098 -0.374114 1.43437
rclavicle 1.59028e-015 -8.94531e-015
rhumerus -22.6238 -18.4128 -79.5313
rradius 22.4051
rwrist 35.9076
rhand -17.3396 -26.0723
rfingers 7.12502
rthumb 8.9076 -55.8643
lclavicle 1.59028e-015 -8.94531e-015
lhumerus -20.1266 5.69304 85.252
lradius 16.9911
lwrist -2.47541
lhand -23.6884 -2.75819
lfingers 7.12502
lthumb 2.77831 27.2035
rfemur -12.9682 -2.02171 19.1553
rtibia 20.8547
rfoot -13.194 -2.83618
rtoes 6.64959
lfemur -12.3781 7.49558 -18.0115
ltibia 19.5826
lfoot -11.2561 5.09718
ltoes -0.10898
28
root 0.525589 17.5473 -14.1132 6.2172 -1.44996 -1.64766
lowerback -2.07347 -0.309599 0.0179796
upperback 3.17537 -0.477283 1.56835
thorax 4.44975 -0.265969 1.58077
lowerneck -13.6572 -0.588873 -2.95274
upperneck 27.3018 -0.923181 2.90243
head 11.1065 -0.372896 1.43788
rclavicle -8.19987e-015 8.34896e-015
rhumerus -22.6181 -18.4335 -79.5259
rradius 22.4038
rwrist 35.9143
rhand -17.342 -26.0782
rfingers 7.12502
rthumb 8.90531 -55.8703
lclavicle -8.19987e-015 8.34896e-015
lhumerus -20.1394 5.74018 85.2361
lradius 16.9686
lwrist -2.52034
lhand -23.7104 -2.77777
lfingers 7.12502
lthumb 2.75701 27.1842
rfemur -12.956 -2.02127 19.1625
rtibia 20.8669
rfoot -13.2061 -2.83895
rtoes 6.64169
lfemur -12.366 7.49166 -18.0016
ltibia 19.594
lfoot -11.2653 5.10276
ltoes -0.110902
29
root 0.524187 17.5468 -14.1118 6.2081 -1.44809 -1.65017
lowerback -2.07834 -0.309233 0.0219541
upperback 3.17845 -0.477163 1.57108
thorax 4.45573 -0.265859 1.58136
lowerneck -13.6574 -0.585246 -2.95223
upperneck 27.3249 -0.920526 2.90917
head 11.1153 -0.370868 1.44089
rclavicle -9.24349e-015 6.75868e-015
rhumerus -22.6119 -18.4582 -79.5207
rradius 22.3978
rwrist 35.9294
rhand -17.3541 -26.0728
rfingers 7.12502
rthumb 8.89364 -55.8654
lclavicle -9.24349e-015 6.75868e-015
lhumerus -20.1497 5.78189 85.2196
lradius 16.9448
lwrist -2.56045
lhand -23.7303 -2.79912
lfingers 7.12502
lthumb 2.73782 27.163
rfemur -12.9468 -2.02241 19.1702
rtibia 20.8797
rfoot -13.2179 -2.84061
rtoes 6.6308
lfemur -12.3559 7.48401 -17.9916
ltibia 19.6043
lfoot -11.2715 5.11188
ltoes -0.11779
30
root 0.522759 17.5463 -14.1105 6.20042 -1.44466 -1.64841
lowerback -2.08312 -0.309011 0.0211621
upperback 3.18111 -0.47699 1.57292
thorax 4.46124 -0.265862 1.58371
lowerneck -13.6609 -0.581716 -2.94919
upperneck 27.3515 -0.917557 2.91215
head 11.1259 -0.368874 1.4422
rclavicle 2.5842e-015 -1.98785e-015
rhumerus -22.6054 -18.4822 -79.5155
rradius 22.3886
rwrist 35.9445
rhand -17.3704 -26.0625
rfingers 7.12502
rthumb 8.87792 -55.8558
lclavicle 2.5842e-015 -1.98785e-015
lhumerus -20.1568 5.82081 85.2037
lradius 16.9191
lwrist -2.59983
lhand -23.7484 -2.81894
lfingers 7.12502
lthumb 2.72039 27.1435
rfemur -12.9399 -2.02576 19.1733
rtibia 20.893
rfoot -13.2287 -2.84211
rtoes 6.62291
lfemur -12.348 7.47504 -17.9867
ltibia 19.6137
lfoot -11.2751 5.12143
ltoes -0.138084
